<mxfile host="app.diagrams.net" agent="Mozilla/5.0 (Windows NT 10.0; Win64; x64) AppleWebKit/537.36 (KHTML, like Gecko) Chrome/129.0.0.0 Safari/537.36" version="24.7.16">
  <diagram id="tz8SA3qqR_neWQL58rE1" name="第 1 页">
    <mxGraphModel dx="875" dy="877" grid="0" gridSize="10" guides="1" tooltips="1" connect="1" arrows="1" fold="1" page="0" pageScale="1" pageWidth="1200" pageHeight="1920" math="0" shadow="0">
      <root>
        <mxCell id="0" />
        <mxCell id="1" parent="0" />
        <mxCell id="zvyIOVWXuP_4gfB80iQT-5" value="&lt;i&gt;Subject&lt;/i&gt;" style="swimlane;fontStyle=1;align=center;verticalAlign=top;childLayout=stackLayout;horizontal=1;startSize=26;horizontalStack=0;resizeParent=1;resizeParentMax=0;resizeLast=0;collapsible=1;marginBottom=0;whiteSpace=wrap;html=1;fillColor=#00FFFF;strokeColor=#6c8ebf;swimlaneFillColor=none;gradientColor=none;swimlaneLine=1;sketch=1;curveFitting=1;jiggle=2;rounded=0;glass=0;shadow=1;" parent="1" vertex="1">
          <mxGeometry x="298" y="-26" width="176" height="122" as="geometry" />
        </mxCell>
        <mxCell id="zvyIOVWXuP_4gfB80iQT-6" value="+ observers: List&amp;lt;Observer&amp;gt;" style="text;align=left;verticalAlign=top;spacingLeft=4;spacingRight=4;overflow=hidden;rotatable=0;points=[[0,0.5],[1,0.5]];portConstraint=eastwest;whiteSpace=wrap;html=1;" parent="zvyIOVWXuP_4gfB80iQT-5" vertex="1">
          <mxGeometry y="26" width="176" height="26" as="geometry" />
        </mxCell>
        <mxCell id="zvyIOVWXuP_4gfB80iQT-7" value="" style="line;strokeWidth=1;fillColor=#dae8fc;align=left;verticalAlign=middle;spacingTop=-1;spacingLeft=3;spacingRight=3;rotatable=0;labelPosition=right;points=[];portConstraint=eastwest;strokeColor=#6c8ebf;" parent="zvyIOVWXuP_4gfB80iQT-5" vertex="1">
          <mxGeometry y="52" width="176" height="8" as="geometry" />
        </mxCell>
        <mxCell id="zvyIOVWXuP_4gfB80iQT-8" value="&lt;i&gt;+ attach(o: Observer): void&lt;/i&gt;&lt;div&gt;&lt;i&gt;+ remove(o: Observer): void&lt;/i&gt;&lt;/div&gt;&lt;div&gt;&lt;i&gt;+ notify(): void&lt;/i&gt;&lt;/div&gt;" style="text;align=left;verticalAlign=top;spacingLeft=4;spacingRight=4;overflow=hidden;rotatable=0;points=[[0,0.5],[1,0.5]];portConstraint=eastwest;whiteSpace=wrap;html=1;" parent="zvyIOVWXuP_4gfB80iQT-5" vertex="1">
          <mxGeometry y="60" width="176" height="62" as="geometry" />
        </mxCell>
        <mxCell id="zvyIOVWXuP_4gfB80iQT-13" value="" style="edgeStyle=none;curved=1;rounded=0;orthogonalLoop=1;jettySize=auto;html=1;fontSize=12;startSize=8;endSize=20;endArrow=block;endFill=0;fillColor=#dae8fc;strokeColor=#6c8ebf;" parent="1" target="zvyIOVWXuP_4gfB80iQT-8" edge="1">
          <mxGeometry relative="1" as="geometry">
            <mxPoint x="386" y="180" as="sourcePoint" />
          </mxGeometry>
        </mxCell>
        <mxCell id="zvyIOVWXuP_4gfB80iQT-14" value="&lt;i&gt;ConcreteSubject&lt;/i&gt;" style="swimlane;fontStyle=1;align=center;verticalAlign=top;childLayout=stackLayout;horizontal=1;startSize=26;horizontalStack=0;resizeParent=1;resizeParentMax=0;resizeLast=0;collapsible=1;marginBottom=0;whiteSpace=wrap;html=1;fillColor=#00FFFF;strokeColor=#6c8ebf;sketch=1;curveFitting=1;jiggle=2;rounded=0;shadow=1;" parent="1" vertex="1">
          <mxGeometry x="298" y="181" width="176" height="150" as="geometry" />
        </mxCell>
        <mxCell id="zvyIOVWXuP_4gfB80iQT-15" value="+ state: String" style="text;align=left;verticalAlign=top;spacingLeft=4;spacingRight=4;overflow=hidden;rotatable=0;points=[[0,0.5],[1,0.5]];portConstraint=eastwest;whiteSpace=wrap;html=1;" parent="zvyIOVWXuP_4gfB80iQT-14" vertex="1">
          <mxGeometry y="26" width="176" height="26" as="geometry" />
        </mxCell>
        <mxCell id="zvyIOVWXuP_4gfB80iQT-16" value="" style="line;strokeWidth=1;fillColor=#dae8fc;align=left;verticalAlign=middle;spacingTop=-1;spacingLeft=3;spacingRight=3;rotatable=0;labelPosition=right;points=[];portConstraint=eastwest;strokeColor=#6c8ebf;" parent="zvyIOVWXuP_4gfB80iQT-14" vertex="1">
          <mxGeometry y="52" width="176" height="8" as="geometry" />
        </mxCell>
        <mxCell id="zvyIOVWXuP_4gfB80iQT-17" value="&lt;i&gt;+ &lt;/i&gt;attach(o: Observer): void&lt;div&gt;+ remove(o: Observer): void&lt;/div&gt;&lt;div&gt;+ notify(): void&lt;/div&gt;&lt;div&gt;+ getState(): String&lt;/div&gt;&lt;div&gt;+ setState(state: String): void&lt;/div&gt;" style="text;align=left;verticalAlign=top;spacingLeft=4;spacingRight=4;overflow=hidden;rotatable=0;points=[[0,0.5],[1,0.5]];portConstraint=eastwest;whiteSpace=wrap;html=1;" parent="zvyIOVWXuP_4gfB80iQT-14" vertex="1">
          <mxGeometry y="60" width="176" height="90" as="geometry" />
        </mxCell>
        <mxCell id="zvyIOVWXuP_4gfB80iQT-26" value="&lt;div&gt;&lt;i&gt;&amp;lt;&amp;lt;interface&amp;gt;&amp;gt;&lt;/i&gt;&lt;/div&gt;&lt;i&gt;Observer&lt;/i&gt;" style="swimlane;fontStyle=1;align=center;verticalAlign=top;childLayout=stackLayout;horizontal=1;startSize=44;horizontalStack=0;resizeParent=1;resizeParentMax=0;resizeLast=0;collapsible=1;marginBottom=0;whiteSpace=wrap;html=1;fillColor=#33FF33;strokeColor=#82B366;gradientColor=none;rounded=0;sketch=1;curveFitting=1;jiggle=2;glass=0;shadow=1;" parent="1" vertex="1">
          <mxGeometry x="724" y="-24" width="160" height="81" as="geometry" />
        </mxCell>
        <mxCell id="zvyIOVWXuP_4gfB80iQT-28" value="" style="line;strokeWidth=1;fillColor=#d5e8d4;align=left;verticalAlign=middle;spacingTop=-1;spacingLeft=3;spacingRight=3;rotatable=0;labelPosition=right;points=[];portConstraint=eastwest;strokeColor=#82b366;" parent="zvyIOVWXuP_4gfB80iQT-26" vertex="1">
          <mxGeometry y="44" width="160" height="8" as="geometry" />
        </mxCell>
        <mxCell id="zvyIOVWXuP_4gfB80iQT-29" value="&lt;i&gt;+ update(): void&amp;nbsp;&lt;/i&gt;" style="text;align=left;verticalAlign=top;spacingLeft=4;spacingRight=4;overflow=hidden;rotatable=0;points=[[0,0.5],[1,0.5]];portConstraint=eastwest;whiteSpace=wrap;html=1;" parent="zvyIOVWXuP_4gfB80iQT-26" vertex="1">
          <mxGeometry y="52" width="160" height="29" as="geometry" />
        </mxCell>
        <mxCell id="zvyIOVWXuP_4gfB80iQT-34" value="" style="edgeStyle=none;curved=1;rounded=0;orthogonalLoop=1;jettySize=auto;html=1;fontSize=12;startSize=8;endSize=20;endArrow=block;endFill=0;fillColor=#d5e8d4;strokeColor=#82b366;" parent="1" target="zvyIOVWXuP_4gfB80iQT-29" edge="1">
          <mxGeometry relative="1" as="geometry">
            <mxPoint x="804" y="211" as="sourcePoint" />
          </mxGeometry>
        </mxCell>
        <mxCell id="zvyIOVWXuP_4gfB80iQT-36" style="edgeStyle=none;curved=1;rounded=0;orthogonalLoop=1;jettySize=auto;html=1;entryX=1.005;entryY=0.016;entryDx=0;entryDy=0;entryPerimeter=0;fontSize=12;startSize=13;endSize=20;startArrow=none;startFill=0;endArrow=diamond;endFill=0;targetPerimeterSpacing=22;sourcePerimeterSpacing=17;arcSize=20;fillColor=none;" parent="1" target="zvyIOVWXuP_4gfB80iQT-8" edge="1">
          <mxGeometry relative="1" as="geometry">
            <mxPoint x="724" y="35.37651920272242" as="sourcePoint" />
          </mxGeometry>
        </mxCell>
        <mxCell id="zvyIOVWXuP_4gfB80iQT-46" value="ConcreteObserver" style="swimlane;fontStyle=1;align=center;verticalAlign=top;childLayout=stackLayout;horizontal=1;startSize=26;horizontalStack=0;resizeParent=1;resizeParentMax=0;resizeLast=0;collapsible=1;marginBottom=0;whiteSpace=wrap;html=1;fillColor=#00FF00;strokeColor=#82b366;glass=0;rounded=0;sketch=1;curveFitting=1;jiggle=2;shadow=1;" parent="1" vertex="1">
          <mxGeometry x="724" y="212" width="160" height="101" as="geometry" />
        </mxCell>
        <mxCell id="zvyIOVWXuP_4gfB80iQT-47" value="+ observerState: String&lt;div&gt;+ subject: Subject&lt;/div&gt;" style="text;align=left;verticalAlign=top;spacingLeft=4;spacingRight=4;overflow=hidden;rotatable=0;points=[[0,0.5],[1,0.5]];portConstraint=eastwest;whiteSpace=wrap;html=1;" parent="zvyIOVWXuP_4gfB80iQT-46" vertex="1">
          <mxGeometry y="26" width="160" height="41" as="geometry" />
        </mxCell>
        <mxCell id="zvyIOVWXuP_4gfB80iQT-48" value="" style="line;strokeWidth=1;fillColor=#d5e8d4;align=left;verticalAlign=middle;spacingTop=-1;spacingLeft=3;spacingRight=3;rotatable=0;labelPosition=right;points=[];portConstraint=eastwest;strokeColor=#82b366;" parent="zvyIOVWXuP_4gfB80iQT-46" vertex="1">
          <mxGeometry y="67" width="160" height="8" as="geometry" />
        </mxCell>
        <mxCell id="zvyIOVWXuP_4gfB80iQT-49" value="+ update(): void" style="text;align=left;verticalAlign=top;spacingLeft=4;spacingRight=4;overflow=hidden;rotatable=0;points=[[0,0.5],[1,0.5]];portConstraint=eastwest;whiteSpace=wrap;html=1;" parent="zvyIOVWXuP_4gfB80iQT-46" vertex="1">
          <mxGeometry y="75" width="160" height="26" as="geometry" />
        </mxCell>
        <mxCell id="zvyIOVWXuP_4gfB80iQT-50" style="edgeStyle=none;curved=1;rounded=0;orthogonalLoop=1;jettySize=auto;html=1;entryX=1;entryY=0.5;entryDx=0;entryDy=0;fontSize=12;startSize=8;endSize=20;exitX=0;exitY=0.5;exitDx=0;exitDy=0;endArrow=openThin;endFill=0;" parent="1" source="zvyIOVWXuP_4gfB80iQT-47" target="zvyIOVWXuP_4gfB80iQT-8" edge="1">
          <mxGeometry relative="1" as="geometry" />
        </mxCell>
      </root>
    </mxGraphModel>
  </diagram>
</mxfile>
